<mxfile host="app.diagrams.net" modified="2023-05-09T02:58:27.659Z" agent="Mozilla/5.0 (Windows NT 10.0; Win64; x64) AppleWebKit/537.36 (KHTML, like Gecko) Chrome/112.0.0.0 Safari/537.36" etag="efd7ydLUJGrVROsCmw4Z" version="21.2.9" type="github">
  <diagram name="페이지-1" id="UG-Ofu5WpkIKn-2PXktu">
    <mxGraphModel dx="1434" dy="739" grid="1" gridSize="10" guides="1" tooltips="1" connect="1" arrows="1" fold="1" page="1" pageScale="1" pageWidth="827" pageHeight="1169" math="0" shadow="0">
      <root>
        <mxCell id="0" />
        <mxCell id="1" parent="0" />
        <mxCell id="Pk6wZpclqD4QDxRbJoCq-33" value="Software Goals&amp;nbsp;" style="rounded=1;whiteSpace=wrap;html=1;verticalAlign=top;" vertex="1" parent="1">
          <mxGeometry x="70" y="970" width="430" height="140" as="geometry" />
        </mxCell>
        <mxCell id="Pk6wZpclqD4QDxRbJoCq-24" value="Platform SW Stablization (Abingdon, Modulization PLC Archtecuture)&amp;nbsp;&amp;nbsp;" style="rounded=1;whiteSpace=wrap;html=1;" vertex="1" parent="1">
          <mxGeometry x="47.5" y="710" width="732.5" height="102.5" as="geometry" />
        </mxCell>
        <mxCell id="Pk6wZpclqD4QDxRbJoCq-1" value="Actor" style="shape=umlActor;verticalLabelPosition=bottom;verticalAlign=top;html=1;outlineConnect=0;" vertex="1" parent="1">
          <mxGeometry x="440" y="150" width="30" height="60" as="geometry" />
        </mxCell>
        <mxCell id="Pk6wZpclqD4QDxRbJoCq-2" value="Actor" style="shape=umlActor;verticalLabelPosition=bottom;verticalAlign=top;html=1;outlineConnect=0;" vertex="1" parent="1">
          <mxGeometry x="80" y="370" width="30" height="60" as="geometry" />
        </mxCell>
        <mxCell id="Pk6wZpclqD4QDxRbJoCq-3" value="Actor" style="shape=umlActor;verticalLabelPosition=bottom;verticalAlign=top;html=1;outlineConnect=0;" vertex="1" parent="1">
          <mxGeometry x="130" y="370" width="30" height="60" as="geometry" />
        </mxCell>
        <mxCell id="Pk6wZpclqD4QDxRbJoCq-5" value="Actor" style="shape=umlActor;verticalLabelPosition=bottom;verticalAlign=top;html=1;outlineConnect=0;" vertex="1" parent="1">
          <mxGeometry x="180" y="370" width="30" height="60" as="geometry" />
        </mxCell>
        <mxCell id="Pk6wZpclqD4QDxRbJoCq-7" value="Actor" style="shape=umlActor;verticalLabelPosition=bottom;verticalAlign=top;html=1;outlineConnect=0;" vertex="1" parent="1">
          <mxGeometry x="230" y="370" width="30" height="60" as="geometry" />
        </mxCell>
        <mxCell id="Pk6wZpclqD4QDxRbJoCq-9" value="Actor" style="shape=umlActor;verticalLabelPosition=bottom;verticalAlign=top;html=1;outlineConnect=0;" vertex="1" parent="1">
          <mxGeometry x="440" y="280" width="30" height="60" as="geometry" />
        </mxCell>
        <mxCell id="Pk6wZpclqD4QDxRbJoCq-10" value="Actor" style="shape=umlActor;verticalLabelPosition=bottom;verticalAlign=top;html=1;outlineConnect=0;" vertex="1" parent="1">
          <mxGeometry x="760" y="280" width="30" height="60" as="geometry" />
        </mxCell>
        <mxCell id="Pk6wZpclqD4QDxRbJoCq-11" value="Actor" style="shape=umlActor;verticalLabelPosition=bottom;verticalAlign=top;html=1;outlineConnect=0;" vertex="1" parent="1">
          <mxGeometry x="350" y="370" width="30" height="60" as="geometry" />
        </mxCell>
        <mxCell id="Pk6wZpclqD4QDxRbJoCq-12" value="Actor" style="shape=umlActor;verticalLabelPosition=bottom;verticalAlign=top;html=1;outlineConnect=0;" vertex="1" parent="1">
          <mxGeometry x="400" y="370" width="30" height="60" as="geometry" />
        </mxCell>
        <mxCell id="Pk6wZpclqD4QDxRbJoCq-13" value="Actor" style="shape=umlActor;verticalLabelPosition=bottom;verticalAlign=top;html=1;outlineConnect=0;" vertex="1" parent="1">
          <mxGeometry x="450" y="370" width="30" height="60" as="geometry" />
        </mxCell>
        <mxCell id="Pk6wZpclqD4QDxRbJoCq-14" value="Actor" style="shape=umlActor;verticalLabelPosition=bottom;verticalAlign=top;html=1;outlineConnect=0;" vertex="1" parent="1">
          <mxGeometry x="500" y="370" width="30" height="60" as="geometry" />
        </mxCell>
        <mxCell id="Pk6wZpclqD4QDxRbJoCq-15" value="Actor" style="shape=umlActor;verticalLabelPosition=bottom;verticalAlign=top;html=1;outlineConnect=0;" vertex="1" parent="1">
          <mxGeometry x="680" y="370" width="30" height="60" as="geometry" />
        </mxCell>
        <mxCell id="Pk6wZpclqD4QDxRbJoCq-16" value="Actor" style="shape=umlActor;verticalLabelPosition=bottom;verticalAlign=top;html=1;outlineConnect=0;" vertex="1" parent="1">
          <mxGeometry x="730" y="370" width="30" height="60" as="geometry" />
        </mxCell>
        <mxCell id="Pk6wZpclqD4QDxRbJoCq-17" value="Actor" style="shape=umlActor;verticalLabelPosition=bottom;verticalAlign=top;html=1;outlineConnect=0;" vertex="1" parent="1">
          <mxGeometry x="780" y="370" width="30" height="60" as="geometry" />
        </mxCell>
        <mxCell id="Pk6wZpclqD4QDxRbJoCq-18" value="Actor" style="shape=umlActor;verticalLabelPosition=bottom;verticalAlign=top;html=1;outlineConnect=0;" vertex="1" parent="1">
          <mxGeometry x="830" y="370" width="30" height="60" as="geometry" />
        </mxCell>
        <mxCell id="Pk6wZpclqD4QDxRbJoCq-19" value="EUV Family" style="rounded=1;whiteSpace=wrap;html=1;" vertex="1" parent="1">
          <mxGeometry x="47.5" y="490" width="735" height="102.5" as="geometry" />
        </mxCell>
        <mxCell id="Pk6wZpclqD4QDxRbJoCq-4" value="Ethan" style="shape=umlActor;verticalLabelPosition=bottom;verticalAlign=top;html=1;outlineConnect=0;" vertex="1" parent="1">
          <mxGeometry x="77.5" y="510" width="30" height="60" as="geometry" />
        </mxCell>
        <mxCell id="Pk6wZpclqD4QDxRbJoCq-21" value="&lt;b&gt;SQA /&lt;/b&gt;&lt;br&gt;&amp;nbsp;Test Engineerting &amp;gt; Software to Software Test (Unit Test, Automated Test, Regerssion Test , DevOps (CD/CI)" style="rounded=1;whiteSpace=wrap;html=1;" vertex="1" parent="1">
          <mxGeometry x="47.5" y="600" width="735" height="102.5" as="geometry" />
        </mxCell>
        <mxCell id="Pk6wZpclqD4QDxRbJoCq-22" value="Evlin" style="shape=umlActor;verticalLabelPosition=bottom;verticalAlign=top;html=1;outlineConnect=0;" vertex="1" parent="1">
          <mxGeometry x="77.5" y="621.25" width="30" height="60" as="geometry" />
        </mxCell>
        <mxCell id="Pk6wZpclqD4QDxRbJoCq-23" value="Roy&amp;nbsp;" style="shape=umlActor;verticalLabelPosition=bottom;verticalAlign=top;html=1;outlineConnect=0;" vertex="1" parent="1">
          <mxGeometry x="77.5" y="720" width="30" height="60" as="geometry" />
        </mxCell>
        <mxCell id="Pk6wZpclqD4QDxRbJoCq-25" value="&lt;h1&gt;Goal&lt;/h1&gt;&lt;p&gt;형식적 Goal이 아닌 우리가 팀의 진짜 Goal 은 무엇인가??&amp;nbsp;&lt;/p&gt;&lt;p&gt;Ethan : &lt;br&gt;1. End-User를 위한 Software Production&amp;nbsp;&lt;br&gt;2. NPI Project Software 준비&lt;br&gt;&lt;br&gt;&lt;br&gt;&lt;/p&gt;" style="text;html=1;strokeColor=none;fillColor=none;spacing=5;spacingTop=-20;whiteSpace=wrap;overflow=hidden;rounded=0;" vertex="1" parent="1">
          <mxGeometry x="47.5" y="820" width="540" height="150" as="geometry" />
        </mxCell>
        <mxCell id="Pk6wZpclqD4QDxRbJoCq-26" value="Actor" style="shape=umlActor;verticalLabelPosition=bottom;verticalAlign=top;html=1;outlineConnect=0;" vertex="1" parent="1">
          <mxGeometry x="150" y="280" width="30" height="60" as="geometry" />
        </mxCell>
        <mxCell id="Pk6wZpclqD4QDxRbJoCq-28" value="명확한 &lt;br&gt;요구사항 식별&amp;nbsp;" style="ellipse;whiteSpace=wrap;html=1;" vertex="1" parent="1">
          <mxGeometry x="100" y="1020" width="90" height="80" as="geometry" />
        </mxCell>
        <mxCell id="Pk6wZpclqD4QDxRbJoCq-29" value="품질&amp;nbsp;" style="ellipse;whiteSpace=wrap;html=1;" vertex="1" parent="1">
          <mxGeometry x="240" y="1020" width="90" height="80" as="geometry" />
        </mxCell>
        <mxCell id="Pk6wZpclqD4QDxRbJoCq-30" value="납기" style="ellipse;whiteSpace=wrap;html=1;" vertex="1" parent="1">
          <mxGeometry x="380" y="1020" width="90" height="80" as="geometry" />
        </mxCell>
        <mxCell id="Pk6wZpclqD4QDxRbJoCq-31" value="NPI" style="ellipse;whiteSpace=wrap;html=1;" vertex="1" parent="1">
          <mxGeometry x="600" y="910" width="280" height="200" as="geometry" />
        </mxCell>
        <mxCell id="Pk6wZpclqD4QDxRbJoCq-32" value="ETO/TSG" style="ellipse;whiteSpace=wrap;html=1;" vertex="1" parent="1">
          <mxGeometry x="610" y="980" width="100" height="90" as="geometry" />
        </mxCell>
        <mxCell id="Pk6wZpclqD4QDxRbJoCq-34" value="" style="endArrow=classic;html=1;rounded=0;exitX=1;exitY=0.5;exitDx=0;exitDy=0;" edge="1" parent="1" source="Pk6wZpclqD4QDxRbJoCq-19">
          <mxGeometry width="50" height="50" relative="1" as="geometry">
            <mxPoint x="920" y="530" as="sourcePoint" />
            <mxPoint x="870" y="541" as="targetPoint" />
          </mxGeometry>
        </mxCell>
        <mxCell id="Pk6wZpclqD4QDxRbJoCq-35" value="1. EUV 프로젝트 별로 개발/테스트 담당자 분할이 가능할까??&amp;nbsp;&lt;br&gt;2. 분할을 한다면 운영의어려운점이 있을텐데... 어떻게 극복해야하나..?&amp;nbsp;&lt;br&gt;3. EUV Family 는 차라리 스크럼이 낫지 않을까...?&amp;nbsp;" style="text;html=1;strokeColor=none;fillColor=none;align=left;verticalAlign=middle;whiteSpace=wrap;rounded=0;" vertex="1" parent="1">
          <mxGeometry x="890" y="500" width="490" height="66.25" as="geometry" />
        </mxCell>
        <mxCell id="Pk6wZpclqD4QDxRbJoCq-36" value="1. SQA Landing에관한 Roadmap수립이 필요, NPI 프로젝트 대상&lt;br&gt;2. 테스트 문서 확보 -&amp;gt; 그리고 문서의 유효성 검증&lt;br&gt;3. 요구사항 / Test Management Tool의 일원화." style="text;html=1;strokeColor=none;fillColor=none;align=left;verticalAlign=middle;whiteSpace=wrap;rounded=0;" vertex="1" parent="1">
          <mxGeometry x="890" y="630" width="490" height="63.75" as="geometry" />
        </mxCell>
        <mxCell id="Pk6wZpclqD4QDxRbJoCq-37" value="" style="endArrow=classic;html=1;rounded=0;" edge="1" parent="1">
          <mxGeometry width="50" height="50" relative="1" as="geometry">
            <mxPoint x="780" y="661.63" as="sourcePoint" />
            <mxPoint x="867" y="661.38" as="targetPoint" />
          </mxGeometry>
        </mxCell>
        <mxCell id="Pk6wZpclqD4QDxRbJoCq-38" value="" style="endArrow=classic;html=1;rounded=0;" edge="1" parent="1">
          <mxGeometry width="50" height="50" relative="1" as="geometry">
            <mxPoint x="780" y="770.25" as="sourcePoint" />
            <mxPoint x="867" y="770" as="targetPoint" />
          </mxGeometry>
        </mxCell>
        <mxCell id="Pk6wZpclqD4QDxRbJoCq-39" value="1. 우리가 모두 CodeSys Modulaization 대한 이해도를 어떻게 향상하게 할것인가?&amp;nbsp;&lt;br&gt;2. ReGIS, H2D Conversion 에 대한 PLC Modulization 을 어떻게 제작할것인가?&amp;nbsp;" style="text;html=1;strokeColor=none;fillColor=none;align=left;verticalAlign=middle;whiteSpace=wrap;rounded=0;" vertex="1" parent="1">
          <mxGeometry x="890" y="740" width="490" height="63.75" as="geometry" />
        </mxCell>
      </root>
    </mxGraphModel>
  </diagram>
</mxfile>
